<svg width="30" height="30" viewBox="0 0 30 30" fill="none" xmlns="http://www.w3.org/2000/svg">
<rect width="30" height="30" rx="15" fill="#3B82F6"/>
<path d="M22.7083 7.66672H18.3333V7.45828C18.3333 6.65414 17.6791 6 16.875 6H13.125C12.3209 6 11.6667 6.65414 11.6667 7.45828V7.66672H7.29172C6.02753 7.66672 5 8.69409 5 9.95828V20.375C5 21.6392 6.02753 22.6667 7.29172 22.6667H22.7083C23.9725 22.6667 25 21.6392 25 20.375V9.95828C25 8.69409 23.9725 7.66672 22.7083 7.66672V7.66672ZM16.6675 9.33328H13.3333V7.66672H16.6667L16.6675 9.33328ZM11.25 11.8333C12.3984 11.8333 13.3333 12.7683 13.3333 13.9167C13.3333 15.0649 12.3984 16 11.25 16C10.1016 16 9.16672 15.0649 9.16672 13.9167C9.16672 12.7683 10.1016 11.8333 11.25 11.8333ZM15 19.5417C15 19.8867 14.72 20.1667 14.375 20.1667H8.125C7.78 20.1667 7.5 19.8867 7.5 19.5417V19.125C7.5 17.8608 8.52753 16.8333 9.79172 16.8333H12.7083C13.9725 16.8333 15 17.8608 15 19.125V19.5417ZM21.875 20.1667H17.2917C16.9467 20.1667 16.6667 19.8867 16.6667 19.5417C16.6667 19.1967 16.9467 18.9167 17.2917 18.9167H21.875C22.22 18.9167 22.5 19.1967 22.5 19.5417C22.5 19.8867 22.22 20.1667 21.875 20.1667ZM21.875 16.8333H17.2917C16.9467 16.8333 16.6667 16.5533 16.6667 16.2083C16.6667 15.8633 16.9467 15.5833 17.2917 15.5833H21.875C22.22 15.5833 22.5 15.8633 22.5 16.2083C22.5 16.5533 22.22 16.8333 21.875 16.8333ZM21.875 13.5H17.2917C16.9467 13.5 16.6667 13.22 16.6667 12.875C16.6667 12.53 16.9467 12.25 17.2917 12.25H21.875C22.22 12.25 22.5 12.53 22.5 12.875C22.5 13.22 22.22 13.5 21.875 13.5Z" fill="white"/>
</svg>
