<svg width="30" height="30" viewBox="0 0 30 30" fill="none" xmlns="http://www.w3.org/2000/svg">
<rect width="30" height="30" rx="15" fill="#3B82F6"/>
<path d="M15 21.9141C15.6472 21.9141 16.1719 21.3894 16.1719 20.7422C16.1719 20.095 15.6472 19.5703 15 19.5703C14.3528 19.5703 13.8281 20.095 13.8281 20.7422C13.8281 21.3894 14.3528 21.9141 15 21.9141Z" fill="white"/>
<path d="M15 3C8.36794 3 3 8.36705 3 15C3 21.6321 8.36705 27 15 27C21.6321 27 27 21.633 27 15C27 8.36794 21.633 3 15 3ZM15 25.125C9.4042 25.125 4.875 20.5965 4.875 15C4.875 9.4042 9.40345 4.875 15 4.875C20.5958 4.875 25.125 9.40345 25.125 15C25.125 20.5958 20.5965 25.125 15 25.125Z" fill="white"/>
<path d="M15 9.02344C12.9323 9.02344 11.25 10.7057 11.25 12.7734C11.25 13.2912 11.6697 13.7109 12.1875 13.7109C12.7053 13.7109 13.125 13.2912 13.125 12.7734C13.125 11.7396 13.9661 10.8984 15 10.8984C16.0339 10.8984 16.875 11.7396 16.875 12.7734C16.875 13.8073 16.0339 14.6484 15 14.6484C14.4822 14.6484 14.0625 15.0682 14.0625 15.5859V17.9297C14.0625 18.4475 14.4822 18.8672 15 18.8672C15.5178 18.8672 15.9375 18.4475 15.9375 17.9297V16.4048C17.5531 15.9875 18.75 14.5176 18.75 12.7734C18.75 10.7057 17.0677 9.02344 15 9.02344Z" fill="white"/>
</svg>
