<svg width="20" height="30" viewBox="0 0 20 30" fill="none" xmlns="http://www.w3.org/2000/svg">
<path d="M19.9128 11.552C19.8543 11.4553 19.7695 11.3749 19.667 11.319C19.5646 11.2631 19.4481 11.2336 19.3294 11.2336H10.5452L12.0179 0.697387C12.0337 0.556376 11.9984 0.414489 11.9176 0.29457C11.8368 0.17465 11.7152 0.083678 11.5725 0.0362995C11.4298 -0.011079 11.2742 -0.0121065 11.1308 0.0333825C10.9874 0.0788715 10.8645 0.16823 10.7819 0.28707L0.0993274 17.8114C0.0368589 17.9066 0.00262133 18.0156 0.000144621 18.1272C-0.00233209 18.2389 0.0270416 18.3491 0.0852376 18.4466C0.143434 18.5441 0.228345 18.6253 0.331218 18.6818C0.43409 18.7383 0.551199 18.7681 0.670471 18.7681H9.32345L8.15635 29.3202C8.14488 29.4608 8.18394 29.6008 8.2673 29.7182C8.35066 29.8355 8.47353 29.9234 8.61637 29.9678C8.75922 30.0122 8.91382 30.0106 9.05559 29.9633C9.19735 29.9159 9.31814 29.8256 9.39872 29.7065L19.9048 12.1841C19.9657 12.0888 19.9985 11.9801 20 11.869C20.0014 11.758 19.9713 11.6486 19.9128 11.552Z" fill="white"/>
</svg>
