<svg width="30" height="30" viewBox="0 0 30 30" fill="none" xmlns="http://www.w3.org/2000/svg">
<rect width="30" height="30" rx="15" fill="#3B82F6"/>
<path d="M19.532 19.5232H21.0938V22.6465C21.0938 23.9381 20.0429 24.9889 18.7513 24.9889H9.34238C8.05087 24.9889 7 23.9381 7 22.6465V7.34238C7 6.05087 8.05087 5 9.34238 5H18.7513C20.0429 5 21.0938 6.05087 21.0938 7.34238V10.4657H19.532V7.34238C19.532 6.91193 19.1819 6.56158 18.7513 6.56158H9.34238C8.91193 6.56158 8.56158 6.91193 8.56158 7.34238V22.6465C8.56158 23.0769 8.91193 23.4273 9.34238 23.4273H18.7513C19.1819 23.4273 19.532 23.0769 19.532 22.6465V19.5232ZM23.3191 11.3135L22.2148 12.4178L24.0107 14.2137H13.9102V15.7753H24.0107L22.2148 17.5711L23.3191 18.6754L27 14.9945L23.3191 11.3135Z" fill="white"/>
</svg>
