<svg width="40" height="40" viewBox="0 0 40 40" fill="none" xmlns="http://www.w3.org/2000/svg">
<rect width="40" height="40" rx="20" fill="url(#paint0_radial)"/>
<g clip-path="url(#clip0)">
<path d="M20 26.4453C20.5604 26.4453 21.128 26.4078 21.6923 26.3336C22.7301 27.7758 24.3523 28.6852 26.103 28.788C26.1146 28.7887 26.1261 28.7891 26.1375 28.7891C26.3565 28.7891 26.5585 28.6665 26.6591 28.4698C26.7649 28.2629 26.7384 28.0129 26.5914 27.8327C26.0029 27.1112 25.588 26.1974 25.4023 25.2243C27.9753 23.9559 30 21.6669 30 18.8281C30 14.1469 24.8732 11.2109 20 11.2109C15.0889 11.2109 10 14.1736 10 18.8281C10 23.5093 15.1268 26.4453 20 26.4453ZM20 12.3828C24.2013 12.3828 28.8281 14.8444 28.8281 18.8281C28.8281 21.0528 27.1768 23.1664 24.5184 24.3442C24.2827 24.4486 24.143 24.6948 24.1741 24.9507C24.2783 25.807 24.523 26.6198 24.8943 27.3556C23.9092 27.0011 23.0479 26.3138 22.4691 25.3895C22.3438 25.1894 22.1112 25.0847 21.8796 25.122C21.2543 25.2225 20.622 25.2734 20 25.2734C15.7987 25.2734 11.1719 22.8119 11.1719 18.8281C11.1719 14.9051 15.7051 12.3828 20 12.3828Z" fill="black"/>
<path d="M15.3125 20.5859C16.2818 20.5859 17.0703 19.7974 17.0703 18.8281C17.0703 17.8589 16.2818 17.0703 15.3125 17.0703C14.3432 17.0703 13.5547 17.8589 13.5547 18.8281C13.5547 19.7974 14.3432 20.5859 15.3125 20.5859ZM15.3125 18.2422C15.6356 18.2422 15.8984 18.505 15.8984 18.8281C15.8984 19.1512 15.6356 19.4141 15.3125 19.4141C14.9894 19.4141 14.7266 19.1512 14.7266 18.8281C14.7266 18.505 14.9894 18.2422 15.3125 18.2422Z" fill="black"/>
<path d="M20 20.5859C20.9693 20.5859 21.7578 19.7974 21.7578 18.8281C21.7578 17.8589 20.9693 17.0703 20 17.0703C19.0307 17.0703 18.2422 17.8589 18.2422 18.8281C18.2422 19.7974 19.0307 20.5859 20 20.5859ZM20 18.2422C20.3231 18.2422 20.5859 18.505 20.5859 18.8281C20.5859 19.1512 20.3231 19.4141 20 19.4141C19.6769 19.4141 19.4141 19.1512 19.4141 18.8281C19.4141 18.505 19.6769 18.2422 20 18.2422Z" fill="black"/>
<path d="M24.6875 20.5859C25.6568 20.5859 26.4453 19.7974 26.4453 18.8281C26.4453 17.8589 25.6568 17.0703 24.6875 17.0703C23.7182 17.0703 22.9297 17.8589 22.9297 18.8281C22.9297 19.7974 23.7182 20.5859 24.6875 20.5859ZM24.6875 18.2422C25.0106 18.2422 25.2734 18.505 25.2734 18.8281C25.2734 19.1512 25.0106 19.4141 24.6875 19.4141C24.3644 19.4141 24.1016 19.1512 24.1016 18.8281C24.1016 18.505 24.3644 18.2422 24.6875 18.2422Z" fill="black"/>
</g>
<defs>
<radialGradient id="paint0_radial" cx="0" cy="0" r="1" gradientUnits="userSpaceOnUse" gradientTransform="translate(9.5 40) scale(35 62.2404)">
<stop offset="0.135223" stop-color="#2DD4BF"/>
<stop offset="1" stop-color="#3B82F6"/>
</radialGradient>
<clipPath id="clip0">
<rect width="20" height="20" fill="white" transform="translate(10 10)"/>
</clipPath>
</defs>
</svg>
