<svg width="30" height="30" viewBox="0 0 30 30" fill="none" xmlns="http://www.w3.org/2000/svg">
<rect width="30" height="30" rx="15" fill="#3B82F6"/>
<path d="M25 15C25 14.2562 24.464 13.4632 23.8033 13.2293C23.1426 12.9955 22.5021 12.4227 22.3157 11.9711C22.1293 11.5194 22.1777 10.6599 22.4793 10.0269C22.7806 9.3938 22.5979 8.45372 22.0719 7.92769C21.5463 7.40165 20.6062 7.21942 19.9727 7.52066C19.3397 7.8219 18.4814 7.87107 18.031 7.68471C17.5806 7.49835 17.0074 6.85702 16.7727 6.19628C16.5376 5.53554 15.7438 5 15 5C14.2562 5 13.4624 5.53554 13.2273 6.19628C12.9921 6.85702 12.4194 7.49835 11.969 7.68471C11.5186 7.87107 10.6599 7.8219 10.0269 7.52066C9.3938 7.21942 8.45372 7.40165 7.92769 7.92769C7.40165 8.45372 7.21942 9.39339 7.52066 10.0269C7.8219 10.6603 7.86983 11.519 7.68264 11.9702C7.49545 12.4215 6.85702 12.9955 6.19628 13.2293C5.53554 13.4632 5 14.2562 5 15C5 15.7438 5.53554 16.5376 6.19628 16.7727C6.85702 17.0074 7.49628 17.5814 7.68347 18.0318C7.87066 18.4818 7.8219 19.3401 7.52066 19.9731C7.21942 20.6062 7.40165 21.5463 7.92769 22.0723C8.45372 22.5979 9.39339 22.7806 10.0269 22.4793C10.6603 22.1781 11.5186 22.1293 11.969 22.3161C12.4198 22.5029 12.9921 23.1459 13.2273 23.8054C13.4624 24.4649 14.2562 25 15 25C15.7438 25 16.5376 24.4649 16.7727 23.8054C17.0074 23.1459 17.5798 22.5037 18.0302 22.3161C18.4806 22.1289 19.3401 22.1781 19.9727 22.4798C20.6062 22.781 21.5463 22.5983 22.0719 22.0727C22.5979 21.5467 22.7806 20.6066 22.4793 19.9736C22.1781 19.3401 22.1285 18.4818 22.3149 18.0314C22.5012 17.581 23.143 17.0079 23.8037 16.7731C24.4645 16.5376 25 15.7438 25 15ZM15 18.6694C12.9711 18.6694 11.3306 17.0289 11.3306 15.0041C11.3306 12.9752 12.9711 11.3347 15 11.3347C17.0244 11.3347 18.6653 12.9752 18.6653 15.0041C18.6653 17.0289 17.0248 18.6694 15 18.6694Z" fill="white"/>
</svg>
