<svg width="30" height="30" viewBox="0 0 30 30" fill="none" xmlns="http://www.w3.org/2000/svg">
<rect width="30" height="30" rx="15" fill="#3B82F6"/>
<g clip-path="url(#clip0)">
<path d="M14.0197 14.8974C14.5419 15.2455 15.4582 15.2456 15.9806 14.8973C15.9807 14.8973 15.9808 14.8972 15.9809 14.8972L24.8819 8.96311C24.59 8.11872 23.7875 7.51044 22.8451 7.51044H7.15502C6.21263 7.51044 5.41016 8.11872 5.11816 8.96311L14.0194 14.8972C14.0195 14.8973 14.0196 14.8973 14.0197 14.8974Z" fill="white"/>
<path d="M16.6308 15.8723C16.6307 15.8724 16.6306 15.8724 16.6305 15.8725C16.1734 16.1772 15.5866 16.3296 15 16.3296C14.4133 16.3296 13.8267 16.1772 13.3696 15.8724C13.3695 15.8724 13.3694 15.8724 13.3694 15.8723L5 10.2928V20.3347C5 21.5229 5.96669 22.4896 7.15494 22.4896H22.8451C24.0334 22.4896 25 21.5229 25 20.3347V10.2928L16.6308 15.8723Z" fill="white"/>
</g>
<defs>
<clipPath id="clip0">
<rect width="20" height="20" fill="white" transform="translate(5 5)"/>
</clipPath>
</defs>
</svg>
