<svg width="20" height="20" viewBox="0 0 20 20" fill="none" xmlns="http://www.w3.org/2000/svg">
<path d="M16.0156 0H0.390625C0.174866 0 0 0.174866 0 0.390625V19.6094C0 19.8251 0.174866 20 0.390625 20H16.0156C16.2314 20 16.4062 19.8251 16.4062 19.6094V0.390625C16.4062 0.174866 16.2314 0 16.0156 0ZM15.625 0.78125V2.46582L14.1106 0.78125H15.625ZM0.78125 0.78125H1.5625V19.2188H0.78125V0.78125ZM2.34375 0.78125H13.06L15.462 3.45322L15.625 3.63449V16.6977L12.7438 19.2188H2.34375V0.78125ZM15.625 19.2188H13.9302L15.625 17.7359V19.2188Z" fill="white"/>
<path d="M7.41211 16.875H5.06836C4.85306 16.875 4.67773 17.0503 4.67773 17.2656C4.67773 17.4809 4.85306 17.6562 5.06836 17.6562H7.41211C7.62726 17.6562 7.80273 17.4809 7.80273 17.2656C7.80273 17.0503 7.62726 16.875 7.41211 16.875Z" fill="white"/>
<path d="M13.2715 17.2656C13.2715 17.0503 13.096 16.875 12.8809 16.875H10.5371C10.3218 16.875 10.1465 17.0503 10.1465 17.2656C10.1465 17.4809 10.3218 17.6562 10.5371 17.6562H12.8809C13.096 17.6562 13.2715 17.4809 13.2715 17.2656Z" fill="white"/>
<path d="M8.97461 16.875C8.75931 16.875 8.58398 17.0503 8.58398 17.2656C8.58398 17.4809 8.75931 17.6562 8.97461 17.6562C9.18976 17.6562 9.36523 17.4809 9.36523 17.2656C9.36523 17.0503 9.18976 16.875 8.97461 16.875Z" fill="white"/>
<path d="M5.06836 16.0938H12.8809C13.0965 16.0938 13.2715 15.9189 13.2715 15.7031C13.2715 15.4874 13.0965 15.3125 12.8809 15.3125H5.06836C4.8526 15.3125 4.67773 15.4874 4.67773 15.7031C4.67773 15.9189 4.8526 16.0938 5.06836 16.0938Z" fill="white"/>
<path d="M7.15659 7.29309C7.29529 7.37015 7.47458 7.40417 7.59573 7.40417C7.78998 7.40417 7.90549 7.34375 7.94226 7.2229L8.20273 6.29242H9.70083L9.96664 7.22244C9.99914 7.3436 10.1017 7.40417 10.2743 7.40417C10.4787 7.40417 10.8475 7.28119 10.8475 7.02667C10.8475 7.01736 10.843 6.99402 10.8336 6.95663C10.8336 6.95663 9.48935 2.57553 9.48416 2.55859C9.41138 2.32162 9.11413 2.25098 8.89685 2.25098C8.69574 2.25098 8.38766 2.30362 8.31641 2.52808L6.96555 6.92581C6.95624 6.96564 6.95166 6.99066 6.95166 7.00058C6.95136 7.13242 7.03955 7.22809 7.15659 7.29309ZM9.0032 3.43262L9.61157 5.57922H8.40247L9.0032 3.43262Z" fill="white"/>
<path d="M7.27979 13.5977C7.27979 13.7656 7.37073 13.8495 7.55246 13.8495H10.4542C10.6509 13.8495 10.7409 13.6158 10.7409 13.451C10.7409 13.2863 10.6506 13.0524 10.4542 13.0524H8.44052L10.5101 9.31155C10.5801 9.19513 10.6151 9.08557 10.6151 8.98303C10.6151 8.81976 10.5241 8.73828 10.3424 8.73828C10.3424 8.73828 7.69955 8.73828 7.68536 8.73828C7.48456 8.73828 7.40567 8.96945 7.40567 9.13669C7.40567 9.3082 7.47983 9.53525 7.68536 9.53525H9.45431L7.37759 13.2831C7.31229 13.3904 7.27979 13.4954 7.27979 13.5977Z" fill="white"/>
</svg>
