<svg width="30" height="30" viewBox="0 0 30 30" fill="none" xmlns="http://www.w3.org/2000/svg">
<rect width="30" height="30" rx="15" fill="#3B82F6"/>
<g clip-path="url(#clip0)">
<path d="M19.8242 8.93739C20.91 8.93739 21.7929 8.05434 21.7929 6.9687C21.7929 5.88305 20.91 5 19.8242 5C18.7387 5 17.8555 5.88305 17.8555 6.9687C17.8555 8.05434 18.7387 8.93739 19.8242 8.93739Z" fill="white"/>
<path d="M10.1755 8.93739C11.2611 8.93739 12.1442 8.05434 12.1442 6.9687C12.1442 5.88305 11.2611 5 10.1755 5C9.0898 5 8.20703 5.88305 8.20703 6.9687C8.20703 8.05434 9.09009 8.93739 10.1755 8.93739Z" fill="white"/>
<path d="M14.8712 15.072L13.3803 9.88048C13.2954 9.40265 12.8858 9.05762 12.4002 9.05762H7.95137C7.46552 9.05762 7.0559 9.40265 6.97092 9.88048L5.47991 15.072C5.46553 15.1216 5.46677 15.1723 5.48115 15.2182C5.47365 15.266 5.46988 15.3114 5.46988 15.3571C5.46988 15.9075 5.91762 16.3553 6.46839 16.3553C6.94961 16.3553 7.36171 16.0113 7.44421 15.5581L8.08794 13.168L7.02327 18.3273C6.97655 18.4455 6.95301 18.569 6.95301 18.6952C6.95301 19.2455 7.40084 19.6934 7.95161 19.6934H8.06019V24.0019C8.06019 24.5526 8.50802 25 9.05856 25C9.60895 25 10.0568 24.5521 10.0568 24.0019V19.6934H10.2954V24.0019C10.2954 24.5526 10.7432 25 11.2937 25C11.8442 25 12.2921 24.5521 12.2921 24.0019V19.6934H12.4009C12.9515 19.6934 13.3991 19.2455 13.3991 18.6952C13.3991 18.568 13.3755 18.4446 13.3288 18.3268L12.2647 13.1678L12.9032 15.5376C12.9904 16.0113 13.4028 16.3553 13.8839 16.3553C14.4343 16.3553 14.882 15.9075 14.882 15.3571C14.882 15.3117 14.878 15.2655 14.8707 15.2179C14.8844 15.172 14.8856 15.1216 14.8712 15.072Z" fill="white"/>
<path d="M24.5185 15.2179C24.5306 15.1793 24.5334 15.1376 24.5253 15.0956L23.5454 9.89677C23.4666 9.4103 23.0531 9.05762 22.5621 9.05762H17.0859C16.5947 9.05762 16.1813 9.41068 16.1041 9.89028L15.1227 15.0956C15.1148 15.1376 15.1174 15.1793 15.1293 15.2179C15.1217 15.2656 15.1182 15.3112 15.1182 15.3571C15.1182 15.9075 15.566 16.3553 16.1167 16.3553C16.5979 16.3553 17.0099 16.0113 17.0978 15.5319L17.7162 11.6662L17.7082 24.002C17.7082 24.5527 18.1558 25.0001 18.7065 25.0001C19.2571 25.0001 19.7049 24.5522 19.7049 24.002V17.896H19.9431V24.002C19.9431 24.5527 20.391 25 20.942 25C21.4923 25 21.94 24.5522 21.94 24.0018L21.9319 11.6662L22.5513 15.5376C22.6383 16.0113 23.0506 16.3553 23.5318 16.3553C24.0822 16.3553 24.53 15.9075 24.53 15.3571C24.5299 15.3112 24.5263 15.265 24.5185 15.2179Z" fill="white"/>
</g>
<defs>
<clipPath id="clip0">
<rect width="20" height="20" fill="white" transform="translate(5 5)"/>
</clipPath>
</defs>
</svg>
