<svg width="30" height="30" viewBox="0 0 30 30" fill="none" xmlns="http://www.w3.org/2000/svg">
<rect width="30" height="30" rx="15" fill="#3B82F6"/>
<path d="M8.57485 21.6603L7.39209 22.7074C7.7687 23.1312 8.17784 23.5248 8.61585 23.8847L9.61568 22.6625C9.24276 22.3565 8.89474 22.0214 8.57485 21.6603Z" fill="white"/>
<path d="M7.02105 19.2207L5.57178 19.8428C5.79586 20.365 6.06193 20.8681 6.36738 21.3473L7.69759 20.502C7.43817 20.0936 7.21192 19.6652 7.02105 19.2207Z" fill="white"/>
<path d="M20.6927 6.43587C19.0713 5.49582 17.2305 5.00049 15.3563 5C10.0258 5.00857 5.52227 8.95618 4.81558 14.2397L2.11495 11.5391L1 12.654L5.5 17.154L10 12.654L8.88505 11.5391L6.44621 13.9748C7.37285 9.05853 12.1094 5.82438 17.0257 6.75102C21.9419 7.67766 25.1761 12.4143 24.2494 17.3304C23.3228 22.2466 18.5862 25.4809 13.6699 24.5542C12.6622 24.3643 11.694 24.0045 10.8066 23.4904L10.0142 24.8537C15.1001 27.8025 21.6136 26.0699 24.5624 20.984C27.5112 15.8981 25.7786 9.38463 20.6927 6.43587Z" fill="white"/>
<path d="M14.1733 8.54828V17.2218L17.6428 19.8239L18.589 18.5623L15.7504 16.4333V8.54828H14.1733Z" fill="white"/>
</svg>
