<svg width="30" height="30" viewBox="0 0 30 30" fill="none" xmlns="http://www.w3.org/2000/svg">
<rect width="30" height="30" rx="15" fill="#3B82F6"/>
<path d="M6.99132 24.0005C6.99132 24.0005 6.97178 24.4922 7.45217 24.4922C8.0498 24.4922 12.9978 24.4857 12.9978 24.4857L13.0059 19.9416C13.0059 19.9416 12.9277 19.1925 13.6548 19.1925H15.9558C16.8156 19.1925 16.7627 19.9416 16.7627 19.9416L16.7529 24.4711C16.7529 24.4711 21.4444 24.4711 22.1813 24.4711C22.7911 24.4711 22.7634 23.8588 22.7634 23.8588V15.4814L15.1131 8.67618L6.99132 15.4814C6.99132 15.4814 6.99132 24.0005 6.99132 24.0005Z" fill="white"/>
<path d="M4 14.8479C4 14.8479 4.68964 16.1189 6.19349 14.8479L15.1808 7.24478L23.607 14.8007C25.3478 16.0562 26 14.8007 26 14.8007L15.1808 5L4 14.8479Z" fill="white"/>
<path d="M23.4028 7.22687H21.2354L21.2443 9.85514L23.4028 11.6863V7.22687Z" fill="white"/>
</svg>
