<svg width="30" height="30" viewBox="0 0 30 30" fill="none" xmlns="http://www.w3.org/2000/svg">
<rect width="30" height="30" rx="15" fill="#3B82F6"/>
<path d="M22.6562 6.5625H21.7188V5H20.1562V6.5625H9.84375V5H8.28125V6.5625H7.34375C6.05141 6.5625 5 7.61391 5 8.90625V22.6562C5 23.9486 6.05141 25 7.34375 25H22.6562C23.9486 25 25 23.9486 25 22.6562V8.90625C25 7.61391 23.9486 6.5625 22.6562 6.5625ZM23.4375 22.6562C23.4375 23.087 23.087 23.4375 22.6562 23.4375H7.34375C6.91297 23.4375 6.5625 23.087 6.5625 22.6562V12.3438H23.4375V22.6562ZM23.4375 10.7812H6.5625V8.90625C6.5625 8.47547 6.91297 8.125 7.34375 8.125H8.28125V9.6875H9.84375V8.125H20.1562V9.6875H21.7188V8.125H22.6562C23.087 8.125 23.4375 8.47547 23.4375 8.90625V10.7812Z" fill="white"/>
<path d="M9.53125 13.9844H7.96875V15.5469H9.53125V13.9844Z" fill="white"/>
<path d="M12.6562 13.9844H11.0938V15.5469H12.6562V13.9844Z" fill="white"/>
<path d="M15.7812 13.9844H14.2188V15.5469H15.7812V13.9844Z" fill="white"/>
<path d="M18.9062 13.9844H17.3438V15.5469H18.9062V13.9844Z" fill="white"/>
<path d="M22.0312 13.9844H20.4688V15.5469H22.0312V13.9844Z" fill="white"/>
<path d="M9.53125 17.1094H7.96875V18.6719H9.53125V17.1094Z" fill="white"/>
<path d="M12.6562 17.1094H11.0938V18.6719H12.6562V17.1094Z" fill="white"/>
<path d="M15.7812 17.1094H14.2188V18.6719H15.7812V17.1094Z" fill="white"/>
<path d="M18.9062 17.1094H17.3438V18.6719H18.9062V17.1094Z" fill="white"/>
<path d="M9.53125 20.2344H7.96875V21.7969H9.53125V20.2344Z" fill="white"/>
<path d="M12.6562 20.2344H11.0938V21.7969H12.6562V20.2344Z" fill="white"/>
<path d="M15.7812 20.2344H14.2188V21.7969H15.7812V20.2344Z" fill="white"/>
<path d="M18.9062 20.2344H17.3438V21.7969H18.9062V20.2344Z" fill="white"/>
<path d="M22.0312 17.1094H20.4688V18.6719H22.0312V17.1094Z" fill="white"/>
</svg>
