<svg width="30" height="30" viewBox="0 0 30 30" fill="none" xmlns="http://www.w3.org/2000/svg">
<rect width="30" height="30" rx="15" fill="#3B82F6"/>
<path d="M16.9375 13.2094C16.9375 14.122 16.1977 14.862 15.2852 14.862C14.3726 14.862 13.6328 14.122 13.6328 13.2094C13.6328 12.2969 14.3726 11.5571 15.2852 11.5571C16.1977 11.5571 16.9375 12.2969 16.9375 13.2094Z" fill="white"/>
<path d="M15.2863 17.3858C14.4963 17.3804 13.7381 17.6966 13.1862 18.2619C12.6959 18.7619 12.4005 19.4286 12.3291 20.1572H18.2435C18.1721 19.4237 17.8767 18.7619 17.3864 18.2619C16.8345 17.6966 16.0763 17.3804 15.2863 17.3858Z" fill="white"/>
<path d="M21 5H9.57143C8.70387 5.00093 8.00093 5.70387 8 6.57143V23.4286C8.00093 24.2961 8.70387 24.9991 9.57143 25H21C21.8676 24.9991 22.5705 24.2961 22.5714 23.4286V6.57143C22.5705 5.70387 21.8676 5.00093 21 5ZM13.3 6.57626H17.1096C17.2935 6.57626 17.4429 6.72545 17.4429 6.9096C17.4429 7.09356 17.2935 7.24293 17.1096 7.24293H13.3C13.1159 7.24293 12.9667 7.09356 12.9667 6.9096C12.9667 6.72545 13.1159 6.57626 13.3 6.57626ZM15.2857 10.8904C16.5651 10.8917 17.6014 11.9301 17.6001 13.2094C17.5988 14.489 16.5605 15.5251 15.2809 15.5238C14.0015 15.5225 12.9654 14.4842 12.9667 13.2048C12.9708 11.9265 14.0074 10.8919 15.2857 10.8904ZM18.5904 20.8238H11.981C11.8923 20.8244 11.8073 20.7894 11.7446 20.7267C11.6819 20.6641 11.6471 20.5791 11.6477 20.4905C11.6477 19.4524 12.0238 18.4952 12.7094 17.7952C13.3899 17.1066 14.3177 16.7191 15.2857 16.7191C16.2537 16.7191 17.1815 17.1066 17.862 17.7952C18.5476 18.4952 18.9237 19.4524 18.9237 20.4905C18.9243 20.5791 18.8895 20.6641 18.8268 20.7267C18.7641 20.7894 18.6791 20.8244 18.5904 20.8238Z" fill="white"/>
</svg>
