<svg width="30" height="30" viewBox="0 0 30 30" fill="none" xmlns="http://www.w3.org/2000/svg">
<g clip-path="url(#clip0)">
<path d="M24.7163 0H5.28375C2.37029 0 0 2.37029 0 5.28375V24.7163C0 27.6297 2.37029 30 5.28375 30H24.7163C27.6297 30 30 27.6297 30 24.7163V17.632C30 17.3078 29.7371 17.0449 29.4129 17.0449C29.0886 17.0449 28.8258 17.3077 28.8258 17.632V24.7163C28.8258 26.9823 26.9822 28.8258 24.7162 28.8258H5.28375C3.0177 28.8258 1.17416 26.9823 1.17416 24.7163V5.28375C1.17416 3.0177 3.0177 1.17416 5.28375 1.17416H24.7163C26.9823 1.17416 28.8258 3.0177 28.8258 5.28375V12.3669C28.8258 12.6911 29.0887 12.954 29.4129 12.954C29.7372 12.954 30.0001 12.6911 30.0001 12.3669V5.28375C30 2.37029 27.6297 0 24.7163 0V0Z" fill="white"/>
<path d="M29.4131 15.5859C29.7367 15.5859 29.999 15.3236 29.999 15C29.999 14.6764 29.7367 14.4141 29.4131 14.4141C29.0895 14.4141 28.8271 14.6764 28.8271 15C28.8271 15.3236 29.0895 15.5859 29.4131 15.5859Z" fill="white"/>
<path d="M23.3851 13.0914H16.9086V6.61484C16.9086 5.96867 16.3829 5.44296 15.7367 5.44296H14.2631C13.6169 5.44296 13.0912 5.96867 13.0912 6.61484V13.0914H6.61475C5.96857 13.0914 5.44287 13.6171 5.44287 14.2633V15.7368C5.44287 16.3829 5.96857 16.9086 6.61475 16.9086H13.0913V23.3852C13.0913 24.0314 13.617 24.5571 14.2632 24.5571H15.7367C16.3829 24.5571 16.9086 24.0314 16.9086 23.3852V16.9086H23.3852C24.0313 16.9086 24.557 16.3829 24.557 15.7368V14.2633C24.557 13.617 24.0313 13.0914 23.3851 13.0914V13.0914ZM23.3851 15.7368H16.3226C15.9991 15.7368 15.7367 15.9992 15.7367 16.3227V23.3852H14.2631V16.3227C14.2631 15.9992 14.0008 15.7368 13.6772 15.7368H6.61475V14.2633H13.6772C14.0008 14.2633 14.2632 14.0009 14.2632 13.6773V6.61484H15.7367V13.6773C15.7367 14.0009 15.9991 14.2633 16.3227 14.2633H23.3852V15.7368H23.3851Z" fill="white"/>
</g>
<defs>
<clipPath id="clip0">
<rect width="30" height="30" fill="white"/>
</clipPath>
</defs>
</svg>
