<svg width="20" height="20" viewBox="0 0 20 20" fill="none" xmlns="http://www.w3.org/2000/svg">
<path d="M17.8362 6.03102L11.9768 0.171641C11.8669 0.0617188 11.7179 0 11.5625 0H2.57812C2.25453 0 1.99219 0.262344 1.99219 0.585938V19.4141C1.99219 19.7377 2.25453 20 2.57812 20H17.4219C17.7455 20 18.0078 19.7377 18.0078 19.4141V6.44531C18.0078 6.28988 17.9461 6.14086 17.8362 6.03102ZM16.8359 18.8281H3.16406V1.17188H11.3198L16.8359 6.68801V18.8281Z" fill="white"/>
<path d="M11.9531 9.41406H10.5859V8.04688C10.5859 7.72328 10.3236 7.46094 10 7.46094C9.67641 7.46094 9.41406 7.72328 9.41406 8.04688V9.41406H8.04688C7.72328 9.41406 7.46094 9.67641 7.46094 10C7.46094 10.3236 7.72328 10.5859 8.04688 10.5859H9.41406V11.9531C9.41406 12.2767 9.67641 12.5391 10 12.5391C10.3236 12.5391 10.5859 12.2767 10.5859 11.9531V10.5859H11.9531C12.2767 10.5859 12.5391 10.3236 12.5391 10C12.5391 9.67641 12.2767 9.41406 11.9531 9.41406Z" fill="white"/>
</svg>
