<svg width="20" height="20" viewBox="0 0 20 20" fill="none" xmlns="http://www.w3.org/2000/svg">
<g clip-path="url(#clip0)">
<path d="M7.42222 9.35909C10.0068 9.35909 12.1018 7.264 12.1018 4.67955C12.1018 2.09522 10.0068 0 7.42222 0C4.83789 0 2.74268 2.09522 2.74268 4.67955C2.74466 7.26313 4.83864 9.35711 7.42222 9.35909ZM7.42222 0.793125C9.5687 0.793125 11.3086 2.53306 11.3086 4.67955C11.3086 6.82604 9.5687 8.56597 7.42222 8.56597C5.27598 8.56597 3.5358 6.82604 3.5358 4.67955C3.5394 2.53467 5.27734 0.796601 7.42222 0.793125Z" fill="white"/>
<path d="M7.42208 10.5289C5.38781 10.5289 3.49605 11.3181 2.09229 12.7538C0.668539 14.2092 -0.112793 16.1959 -0.112793 18.3534C-0.112172 18.5722 0.0650984 18.7493 0.283831 18.7499H14.5604C14.7793 18.7493 14.9563 18.5722 14.9569 18.3534C14.9569 16.2 14.1757 14.2092 12.7521 12.7577C11.3482 11.3221 9.45659 10.5289 7.42208 10.5289ZM0.688401 17.9568C0.775671 16.1643 1.46961 14.5265 2.65538 13.3129C3.90857 12.0319 5.60195 11.3262 7.41823 11.3262C9.23451 11.3262 10.9279 12.0319 12.181 13.3129C13.3707 14.5265 14.0608 16.1643 14.1481 17.9568H0.688401Z" fill="white"/>
</g>
<defs>
<clipPath id="clip0">
<rect width="20" height="20" fill="white"/>
</clipPath>
</defs>
</svg>
