<svg width="26" height="22" viewBox="0 0 26 22" fill="none" xmlns="http://www.w3.org/2000/svg">
<g clip-path="url(#clip0)">
<path d="M24.8552 20.436L17.9831 14.1798C19.3142 12.6829 20.1157 10.7808 20.1157 8.70918C20.1157 3.90772 15.8242 0.000915527 10.55 0.000915527C5.27581 0.000915527 0.984375 3.90768 0.984375 8.70914C0.984375 13.5106 5.27586 17.4174 10.5501 17.4174C12.8257 17.4174 14.915 16.6878 16.5593 15.4759L23.4315 21.7321C23.6278 21.9109 23.8856 22.0007 24.1434 22.0007C24.4012 22.0007 24.6589 21.9109 24.8553 21.7321C25.249 21.3737 25.249 20.7944 24.8552 20.436ZM10.5501 15.5841C6.38546 15.5841 2.99822 12.5004 2.99822 8.70914C2.99822 4.91782 6.38546 1.8342 10.5501 1.8342C14.7147 1.8342 18.1019 4.91782 18.1019 8.70914C18.1019 12.5004 14.7146 15.5841 10.5501 15.5841Z" fill="#636363"/>
</g>
<defs>
<clipPath id="clip0">
<rect x="0.984375" width="24.1662" height="22" rx="10" fill="white"/>
</clipPath>
</defs>
</svg>
