<svg width="40" height="40" viewBox="0 0 40 40" fill="none" xmlns="http://www.w3.org/2000/svg">
<rect width="40" height="40" rx="20" fill="url(#paint0_radial)"/>
<path d="M29.7881 16.6375L24.0737 10.2376C23.9323 10.0792 23.765 10 23.5715 10C23.3781 10 23.2106 10.0792 23.0693 10.2376C22.9279 10.396 22.8571 10.5835 22.8571 10.8002V14.0001H20.3572C15.0519 14.0001 11.7969 15.6793 10.5913 19.0377C10.1971 20.1542 10 21.5419 10 23.2002C10 24.5834 10.4725 26.4626 11.4174 28.8376C11.4397 28.8961 11.4786 28.9959 11.5345 29.1375C11.5904 29.279 11.6405 29.404 11.6852 29.5125C11.73 29.6207 11.7784 29.7124 11.8304 29.7873C11.9196 29.929 12.0238 30 12.1429 30C12.2545 30 12.3419 29.9584 12.4052 29.875C12.4684 29.7918 12.5 29.6875 12.5 29.5628C12.5 29.4876 12.4907 29.3773 12.472 29.2314C12.4534 29.0855 12.4441 28.9878 12.4441 28.9377C12.4068 28.3713 12.3882 27.8584 12.3882 27.4004C12.3882 26.5587 12.4534 25.8046 12.5835 25.1379C12.7138 24.4712 12.8942 23.8942 13.1249 23.4067C13.3556 22.9189 13.6531 22.4984 14.0178 22.1442C14.3823 21.79 14.7748 21.5005 15.1952 21.2755C15.6156 21.0504 16.1104 20.8733 16.6796 20.7442C17.2488 20.615 17.8216 20.5254 18.3983 20.4754C18.9751 20.4253 19.628 20.4005 20.3572 20.4005H22.8571V23.6005C22.8571 23.8172 22.9278 24.0047 23.0691 24.163C23.2106 24.3212 23.3779 24.4005 23.5713 24.4005C23.7647 24.4005 23.9321 24.3212 24.0737 24.163L29.788 17.7628C29.9294 17.6045 30 17.417 30 17.2004C30 16.9837 29.9294 16.7962 29.7881 16.6375Z" fill="black"/>
<defs>
<radialGradient id="paint0_radial" cx="0" cy="0" r="1" gradientUnits="userSpaceOnUse" gradientTransform="translate(9.5 40) scale(35 62.2404)">
<stop offset="0.135223" stop-color="#2DD4BF"/>
<stop offset="1" stop-color="#3B82F6"/>
</radialGradient>
</defs>
</svg>
