<svg width="30" height="30" viewBox="0 0 30 30" fill="none" xmlns="http://www.w3.org/2000/svg">
<rect width="30" height="30" rx="15" fill="#3B82F6"/>
<g clip-path="url(#clip0)">
<path d="M24.4552 19.678L21.6641 16.8869C20.6673 15.8901 18.9727 16.2889 18.574 17.5847C18.275 18.4819 17.2782 18.9803 16.381 18.7809C14.3874 18.2825 11.696 15.6908 11.1976 13.5975C10.8986 12.7003 11.4967 11.7035 12.3938 11.4045C13.6896 11.0058 14.0884 9.31119 13.0916 8.31438L10.3005 5.52332C9.50306 4.82556 8.30689 4.82556 7.60912 5.52332L5.71519 7.41726C3.82126 9.41087 5.91455 14.6939 10.5995 19.3789C15.2845 24.0639 20.5676 26.2569 22.5612 24.2633L24.4552 22.3694C25.153 21.5719 25.153 20.3757 24.4552 19.678Z" fill="white"/>
</g>
<defs>
<clipPath id="clip0">
<rect width="20" height="20" fill="white" transform="translate(5 5)"/>
</clipPath>
</defs>
</svg>
